#Comment line ignore any data following # character 
#Hierarchical Translation and Rotation (.htr) file 
[Header]	
#Header keywords are followed by a single value 
FileType HTR		#Single word string
DataType HTRS		#Translation followed by rotation and scale data
FileVersion 1		#integer
NumSegments 84		#integer
NumFrames 2		#integer
DataFrameRate 30		#integer, data frame rate in this file
EulerRotationOrder ZYX
CalibrationUnits mm
RotationUnits Degrees
GlobalAxisofGravity Y
BoneLengthAxis Y
ScaleFactor 1.00
[SegmentNames&Hierarchy]
#CHILD	PARENT
MASTER GLOBAL
root MASTER
chest root
L_mid_tent01 root
R_mid_tent01 root
spine01 root
Bip01_Neck chest
L_humerus chest
R_humerus chest
weapon_bone chest
Bip01_Head Bip01_Neck
eye_left_bone Bip01_Head
eye_right_bone Bip01_Head
L_forearm L_humerus
L_front_hand L_forearm
L_weapon_bone L_forearm
L_front_hand01_01 L_front_hand
L_front_hand02_01 L_front_hand
L_front_hand03_01 L_front_hand
L_front_hand01_02 L_front_hand01_01
L_front_hand02_02 L_front_hand02_01
L_front_hand03_02 L_front_hand03_01
R_forearm R_humerus
R_front_hand R_forearm
R_weapon_bone R_forearm
R_front_hand01_01 R_front_hand
R_front_hand02_01 R_front_hand
R_front_hand03_01 R_front_hand
R_front_hand01_02 R_front_hand01_01
R_front_hand02_02 R_front_hand02_01
R_front_hand03_02 R_front_hand03_01
null_rope01_connect L_mid_tent01
Rope1_Seg01 null_rope01_connect
Rope1_Seg02 Rope1_Seg01
Rope1_Seg03 Rope1_Seg02
Rope1_Seg04 Rope1_Seg03
Rope1_Seg05 Rope1_Seg04
Rope1_Seg06 Rope1_Seg05
Rope1_Seg07 Rope1_Seg06
Rope1_Seg09 Rope1_Seg07
L_mid_hand01 Rope1_Seg09
L_mid_hand02 Rope1_Seg09
L_mid_hand03 Rope1_Seg09
null_rope02_connect R_mid_tent01
Rope2_Seg01 null_rope02_connect
Rope2_Seg02 Rope2_Seg01
Rope2_Seg03 Rope2_Seg02
Rope2_Seg04 Rope2_Seg03
Rope2_Seg05 Rope2_Seg04
Rope2_Seg06 Rope2_Seg05
Rope2_Seg07 Rope2_Seg06
Rope2_Seg09 Rope2_Seg07
R_mid_hand01 Rope2_Seg09
R_mid_hand02 Rope2_Seg09
R_mid_hand03 Rope2_Seg09
spine02 spine01
spine03 spine02
pelvis spine03
null_rope03_connect pelvis
null_rope04_connect pelvis
Rope3_Seg01 null_rope03_connect
Rope3_Seg02 Rope3_Seg01
Rope3_Seg03 Rope3_Seg02
Rope3_Seg04 Rope3_Seg03
Rope3_Seg05 Rope3_Seg04
Rope3_Seg06 Rope3_Seg05
Rope3_Seg07 Rope3_Seg06
Rope3_Seg08 Rope3_Seg07
Rope3_Seg09 Rope3_Seg08
R_rear_hand01 Rope3_Seg09
R_rear_hand02 Rope3_Seg09
R_rear_hand03 Rope3_Seg09
Rope4_Seg01 null_rope04_connect
Rope4_Seg02 Rope4_Seg01
Rope4_Seg03 Rope4_Seg02
Rope4_Seg04 Rope4_Seg03
Rope4_Seg05 Rope4_Seg04
Rope4_Seg06 Rope4_Seg05
Rope4_Seg07 Rope4_Seg06
Rope4_Seg08 Rope4_Seg07
Rope4_Seg09 Rope4_Seg08
L_rear_hand01 Rope4_Seg09
L_rear_hand02 Rope4_Seg09
L_rear_hand03 Rope4_Seg09
[BasePosition]
#SegmentName Tx, Ty, Tz, Rx, Ry, Rz, BoneLength
MASTER 0.000000 0.000000 0.000000 -90.000000 0.000000 0.000000 10.000000 
root 0.000000 0.000000 0.000000 0.000000 0.000000 0.000000 10.000000 
chest 0.000000 0.000000 0.000000 0.000000 0.000000 0.000000 10.000000 
L_mid_tent01 0.000000 0.000000 0.000000 0.000000 0.000000 0.000000 10.000000 
R_mid_tent01 0.000000 0.000000 0.000000 0.000000 0.000000 0.000000 10.000000 
spine01 0.000000 0.000000 0.000000 0.000000 0.000000 0.000000 10.000000 
Bip01_Neck 0.000000 0.000000 0.000000 0.000000 0.000000 0.000000 10.000000 
L_humerus 0.000000 0.000000 0.000000 0.000000 0.000000 0.000000 10.000000 
R_humerus 0.000000 0.000000 0.000000 0.000000 0.000000 0.000000 10.000000 
weapon_bone 0.000000 0.000000 0.000000 0.000000 0.000000 0.000000 10.000000 
Bip01_Head 0.000000 0.000000 0.000000 0.000000 0.000000 0.000000 10.000000 
eye_left_bone 0.000000 0.000000 0.000000 0.000000 0.000000 0.000000 10.000000 
eye_right_bone 0.000000 0.000000 0.000000 0.000000 0.000000 0.000000 10.000000 
L_forearm 0.000000 0.000000 0.000000 0.000000 0.000000 0.000000 10.000000 
L_front_hand 0.000000 0.000000 0.000000 0.000000 0.000000 0.000000 10.000000 
L_weapon_bone 0.000000 0.000000 0.000000 0.000000 0.000000 0.000000 10.000000 
L_front_hand01_01 0.000000 0.000000 0.000000 0.000000 0.000000 0.000000 10.000000 
L_front_hand02_01 0.000000 0.000000 0.000000 0.000000 0.000000 0.000000 10.000000 
L_front_hand03_01 0.000000 0.000000 0.000000 0.000000 0.000000 0.000000 10.000000 
L_front_hand01_02 0.000000 0.000000 0.000000 0.000000 0.000000 0.000000 10.000000 
L_front_hand02_02 0.000000 0.000000 0.000000 0.000000 0.000000 0.000000 10.000000 
L_front_hand03_02 0.000000 0.000000 0.000000 0.000000 0.000000 0.000000 10.000000 
R_forearm 0.000000 0.000000 0.000000 0.000000 0.000000 0.000000 10.000000 
R_front_hand 0.000000 0.000000 0.000000 0.000000 0.000000 0.000000 10.000000 
R_weapon_bone 0.000000 0.000000 0.000000 0.000000 0.000000 0.000000 10.000000 
R_front_hand01_01 0.000000 0.000000 0.000000 0.000000 0.000000 0.000000 10.000000 
R_front_hand02_01 0.000000 0.000000 0.000000 0.000000 0.000000 0.000000 10.000000 
R_front_hand03_01 0.000000 0.000000 0.000000 0.000000 0.000000 0.000000 10.000000 
R_front_hand01_02 0.000000 0.000000 0.000000 0.000000 0.000000 0.000000 10.000000 
R_front_hand02_02 0.000000 0.000000 0.000000 0.000000 0.000000 0.000000 10.000000 
R_front_hand03_02 0.000000 0.000000 0.000000 0.000000 0.000000 0.000000 10.000000 
null_rope01_connect 0.000000 0.000000 0.000000 0.000000 0.000000 0.000000 10.000000 
Rope1_Seg01 0.000000 0.000000 0.000000 0.000000 0.000000 0.000000 10.000000 
Rope1_Seg02 0.000000 0.000000 0.000000 0.000000 0.000000 0.000000 10.000000 
Rope1_Seg03 0.000000 0.000000 0.000000 0.000000 0.000000 0.000000 10.000000 
Rope1_Seg04 0.000000 0.000000 0.000000 0.000000 0.000000 0.000000 10.000000 
Rope1_Seg05 0.000000 0.000000 0.000000 0.000000 0.000000 0.000000 10.000000 
Rope1_Seg06 0.000000 0.000000 0.000000 0.000000 0.000000 0.000000 10.000000 
Rope1_Seg07 0.000000 0.000000 0.000000 0.000000 0.000000 0.000000 10.000000 
Rope1_Seg09 0.000000 0.000000 0.000000 0.000000 0.000000 0.000000 10.000000 
L_mid_hand01 0.000000 0.000000 0.000000 0.000000 0.000000 0.000000 10.000000 
L_mid_hand02 0.000000 0.000000 0.000000 0.000000 0.000000 0.000000 10.000000 
L_mid_hand03 0.000000 0.000000 0.000000 0.000000 0.000000 0.000000 10.000000 
null_rope02_connect 0.000000 0.000000 0.000000 0.000000 0.000000 0.000000 10.000000 
Rope2_Seg01 0.000000 0.000000 0.000000 0.000000 0.000000 0.000000 10.000000 
Rope2_Seg02 0.000000 0.000000 0.000000 0.000000 0.000000 0.000000 10.000000 
Rope2_Seg03 0.000000 0.000000 0.000000 0.000000 0.000000 0.000000 10.000000 
Rope2_Seg04 0.000000 0.000000 0.000000 0.000000 0.000000 0.000000 10.000000 
Rope2_Seg05 0.000000 0.000000 0.000000 0.000000 0.000000 0.000000 10.000000 
Rope2_Seg06 0.000000 0.000000 0.000000 0.000000 0.000000 0.000000 10.000000 
Rope2_Seg07 0.000000 0.000000 0.000000 0.000000 0.000000 0.000000 10.000000 
Rope2_Seg09 0.000000 0.000000 0.000000 0.000000 0.000000 0.000000 10.000000 
R_mid_hand01 0.000000 0.000000 0.000000 0.000000 0.000000 0.000000 10.000000 
R_mid_hand02 0.000000 0.000000 0.000000 0.000000 0.000000 0.000000 10.000000 
R_mid_hand03 0.000000 0.000000 0.000000 0.000000 0.000000 0.000000 10.000000 
spine02 0.000000 0.000000 0.000000 0.000000 0.000000 0.000000 10.000000 
spine03 0.000000 0.000000 0.000000 0.000000 0.000000 0.000000 10.000000 
pelvis 0.000000 0.000000 0.000000 0.000000 0.000000 0.000000 10.000000 
null_rope03_connect 0.000000 0.000000 0.000000 0.000000 0.000000 0.000000 10.000000 
null_rope04_connect 0.000000 0.000000 0.000000 0.000000 0.000000 0.000000 10.000000 
Rope3_Seg01 0.000000 0.000000 0.000000 0.000000 0.000000 0.000000 10.000000 
Rope3_Seg02 0.000000 0.000000 0.000000 0.000000 0.000000 0.000000 10.000000 
Rope3_Seg03 0.000000 0.000000 0.000000 0.000000 0.000000 0.000000 10.000000 
Rope3_Seg04 0.000000 0.000000 0.000000 0.000000 0.000000 0.000000 10.000000 
Rope3_Seg05 0.000000 0.000000 0.000000 0.000000 0.000000 0.000000 10.000000 
Rope3_Seg06 0.000000 0.000000 0.000000 0.000000 0.000000 0.000000 10.000000 
Rope3_Seg07 0.000000 0.000000 0.000000 0.000000 0.000000 0.000000 10.000000 
Rope3_Seg08 0.000000 0.000000 0.000000 0.000000 0.000000 0.000000 10.000000 
Rope3_Seg09 0.000000 0.000000 0.000000 0.000000 0.000000 0.000000 10.000000 
R_rear_hand01 0.000000 0.000000 0.000000 0.000000 0.000000 0.000000 10.000000 
R_rear_hand02 0.000000 0.000000 0.000000 0.000000 0.000000 0.000000 10.000000 
R_rear_hand03 0.000000 0.000000 0.000000 0.000000 0.000000 0.000000 10.000000 
Rope4_Seg01 0.000000 0.000000 0.000000 0.000000 0.000000 0.000000 10.000000 
Rope4_Seg02 0.000000 0.000000 0.000000 0.000000 0.000000 0.000000 10.000000 
Rope4_Seg03 0.000000 0.000000 0.000000 0.000000 0.000000 0.000000 10.000000 
Rope4_Seg04 0.000000 0.000000 0.000000 0.000000 0.000000 0.000000 10.000000 
Rope4_Seg05 0.000000 0.000000 0.000000 0.000000 0.000000 0.000000 10.000000 
Rope4_Seg06 0.000000 0.000000 0.000000 0.000000 0.000000 0.000000 10.000000 
Rope4_Seg07 0.000000 0.000000 0.000000 0.000000 0.000000 0.000000 10.000000 
Rope4_Seg08 0.000000 0.000000 0.000000 0.000000 0.000000 0.000000 10.000000 
Rope4_Seg09 0.000000 0.000000 0.000000 0.000000 0.000000 0.000000 10.000000 
L_rear_hand01 0.000000 0.000000 0.000000 0.000000 0.000000 0.000000 10.000000 
L_rear_hand02 0.000000 0.000000 0.000000 0.000000 0.000000 0.000000 10.000000 
L_rear_hand03 0.000000 0.000000 0.000000 0.000000 0.000000 0.000000 10.000000 
#Beginning of Data. Separated by tabs
#Fr	Tx	Ty	Tz	Rx	Ry	Rz	SF
[MASTER]
31 -115.823105 4093.998047 352.445953 0.001660 0.001660 0.001660 4110.772461
32 -115.823105 4093.488281 352.422516 0.001660 0.001660 0.001660 4110.262695
[root]
31 2.696667 444.668884 1104.892578 -96.235016 -37.029194 -86.953636 1191.018677
32 2.696667 444.668884 1104.892578 -96.235016 -37.029194 -86.953636 1191.018677
[chest]
31 -84.512650 -34.090519 0.000000 -12.316157 -27.898691 150.906555 91.129311
32 -84.512650 -34.090519 0.000000 -12.548903 -27.931585 151.220947 91.129311
[L_mid_tent01]
31 27.299156 22.179029 -249.918701 -2.497336 36.028553 64.365601 252.381683
32 27.299158 22.179026 -249.918701 -3.587962 35.511734 62.254360 252.381683
[R_mid_tent01]
31 23.228794 24.509907 226.238495 173.895676 -30.891891 58.389252 228.744751
32 23.228794 24.509907 226.238495 174.778397 -30.655024 57.072002 228.744751
[spine01]
31 -0.361383 -0.195265 0.000000 -0.000001 -0.000007 22.052340 0.410763
32 -0.361383 -0.195265 0.000000 -0.000001 -0.000007 22.052340 0.410763
[Bip01_Neck]
31 165.484543 71.581718 0.000119 176.643677 -1.657967 43.431911 180.302734
32 165.484543 71.581718 0.000119 176.643677 -1.657967 43.431911 180.302734
[L_humerus]
31 -13.983130 -135.272980 -120.471481 153.146393 73.140465 -115.362320 181.680161
32 -13.983130 -135.272980 -120.471481 149.166458 75.788506 -119.510277 181.680161
[R_humerus]
31 -13.983309 -135.273102 125.287651 -172.280380 -70.053375 -92.691833 184.909012
32 -13.983309 -135.273102 125.287651 -172.257187 -72.962646 -92.737663 184.909012
[weapon_bone]
31 235.964890 -300.705902 0.000000 0.000000 -89.951546 -128.212341 382.234833
32 235.964890 -300.705902 0.000000 0.000000 -89.951546 -128.212341 382.234833
[Bip01_Head]
31 217.316269 193.779877 33.482849 32.574516 13.922997 -44.059910 293.083771
32 217.316177 193.779907 33.482906 32.574509 13.922996 -44.059906 293.083740
[eye_left_bone]
31 -24.626970 125.451866 -64.772606 0.000000 -90.000000 -99.840431 143.318359
32 -24.626970 125.451866 -64.772606 0.000000 -90.000000 -99.840431 143.318359
[eye_right_bone]
31 -24.626970 125.451866 64.327362 0.000000 -89.965736 80.156380 143.117676
32 -24.626970 125.451866 64.327362 0.000000 -89.965736 80.156380 143.117676
[L_forearm]
31 322.776093 0.000000 -0.000119 0.000353 -0.002321 -107.278938 322.776093
32 322.776093 0.000000 -0.000119 0.000343 -0.002322 -106.811493 322.776093
[L_front_hand]
31 241.149185 -0.042021 -3.300071 0.836693 -1.835726 -27.423458 241.171753
32 241.149185 -0.042021 -3.300071 0.836590 -1.835725 -27.423449 241.171753
[L_weapon_bone]
31 156.183838 0.000000 0.000000 0.000014 0.000007 0.000001 156.183838
32 156.183838 0.000000 0.000000 0.000014 0.000007 0.000001 156.183838
[L_front_hand01_01]
31 86.095154 20.947098 -0.655860 -0.366594 -0.477154 75.385574 88.609184
32 86.095154 20.947098 -0.655860 -0.366594 -0.477154 75.385574 88.609184
[L_front_hand02_01]
31 86.935165 -11.437475 24.513514 154.399796 -59.883835 -61.369587 91.046425
32 86.935165 -11.437475 24.513514 154.399811 -59.883842 -61.369598 91.046425
[L_front_hand03_01]
31 86.637497 -14.123976 -20.424902 -153.913849 58.118122 -62.702866 90.126129
32 86.637497 -14.123976 -20.424902 -153.913879 58.118130 -62.702892 90.126129
[L_front_hand01_02]
31 71.020905 -0.000179 0.000030 0.001476 0.001825 -12.083243 71.020905
32 71.020905 -0.000179 0.000030 0.001441 0.001853 -14.258885 71.020905
[L_front_hand02_02]
31 71.020927 -0.000119 0.000060 0.001476 0.001825 -12.083243 71.020927
32 71.020927 -0.000119 0.000060 0.001441 0.001853 -14.258885 71.020927
[L_front_hand03_02]
31 71.020905 -0.000060 0.000060 0.001476 0.001825 -12.083243 71.020905
32 71.020905 -0.000060 0.000060 0.001441 0.001853 -14.258885 71.020905
[R_forearm]
31 322.776428 -0.000060 0.000030 0.204064 0.055150 -106.317665 322.776428
32 322.776428 -0.000060 0.000030 0.204289 0.054312 -105.847282 322.776428
[R_front_hand]
31 238.847015 -0.006795 2.210259 42.936085 -10.646153 -26.312967 238.857239
32 238.847015 -0.006795 2.210259 42.936226 -10.646151 -26.312963 238.857239
[R_weapon_bone]
31 155.664093 0.002503 -0.000030 0.003487 0.001180 -90.988930 155.664078
32 155.664093 0.002503 -0.000030 0.003487 0.001180 -90.988930 155.664078
[R_front_hand01_01]
31 87.624611 14.231146 22.918642 -154.633499 -59.950619 61.746044 91.683487
32 87.624611 14.231146 22.918642 -154.633499 -59.950619 61.746044 91.683487
[R_front_hand02_01]
31 89.356956 14.367283 -19.491137 154.602661 58.302849 63.744389 92.579636
32 89.356956 14.367283 -19.491137 154.602661 58.302849 63.744381 92.579636
[R_front_hand03_01]
31 87.286232 -22.307278 -0.143439 0.162155 -0.423168 -75.767906 90.091743
32 87.286232 -22.307278 -0.143439 0.162155 -0.423168 -75.767921 90.091743
[R_front_hand01_02]
31 71.020905 0.000060 0.000119 0.001813 0.001491 11.142049 71.020905
32 71.020905 0.000060 0.000119 0.001828 0.001472 12.300452 71.020905
[R_front_hand02_02]
31 71.020844 -0.000030 -0.000119 0.001813 0.001491 11.142049 71.020836
32 71.020844 -0.000030 -0.000119 0.001828 0.001472 12.300452 71.020836
[R_front_hand03_02]
31 71.020905 0.000000 0.000030 0.001813 0.001491 11.142049 71.020905
32 71.020905 0.000000 0.000030 0.001828 0.001472 12.300452 71.020905
[null_rope01_connect]
31 328.732483 0.000000 -0.000238 -126.264015 -50.524078 -170.474594 328.732483
32 328.732483 0.000000 -0.000238 -126.161644 -50.968216 -168.815933 328.732483
[Rope1_Seg01]
31 0.000038 -0.000329 0.000000 -9.661887 18.528742 175.174881 0.000331
32 0.000036 -0.000339 0.000000 -10.367090 20.286856 172.835297 0.000341
[Rope1_Seg02]
31 139.999863 -0.000179 0.000000 7.043211 6.691638 18.868395 139.999863
32 139.999863 -0.000179 0.000000 6.106143 5.491699 19.745647 139.999863
[Rope1_Seg03]
31 139.999924 0.000060 -0.000060 1.779720 1.710593 4.055783 139.999924
32 139.999924 0.000060 -0.000060 1.446472 0.634264 4.388082 139.999924
[Rope1_Seg04]
31 139.999924 -0.000060 -0.000119 32.037430 20.407080 41.237453 139.999924
32 139.999924 -0.000060 -0.000119 30.409540 19.455912 39.727837 139.999924
[Rope1_Seg05]
31 139.999832 0.000119 -0.000060 22.522989 27.805529 22.690435 139.999832
32 139.999832 0.000119 -0.000060 24.480978 28.691343 24.696432 139.999832
[Rope1_Seg06]
31 139.999954 0.000119 -0.000060 3.113047 8.573396 3.048450 139.999954
32 139.999954 0.000119 -0.000060 3.266550 8.858693 3.192892 139.999954
[Rope1_Seg07]
31 139.999985 0.000060 0.000000 1.243503 4.336459 1.293574 139.999985
32 139.999985 0.000060 0.000000 1.280588 4.429732 1.328239 139.999985
[Rope1_Seg09]
31 121.602913 0.000119 -0.000089 -89.793175 -1.359789 0.847147 121.602913
32 121.602913 0.000119 -0.000089 -89.793175 -1.359789 0.847147 121.602913
[L_mid_hand01]
31 103.859421 1.038730 8.195221 130.544373 -67.584534 -38.866943 104.187431
32 103.859421 1.038730 8.195221 130.544373 -67.584534 -38.866943 104.187431
[L_mid_hand02]
31 105.572853 -4.139662 -10.864139 -168.923172 43.409309 -73.498886 106.211075
32 105.572853 -4.139662 -10.864139 -168.923172 43.409321 -73.498909 106.211075
[L_mid_hand03]
31 104.641464 17.579376 -3.913581 -6.012627 17.808178 74.893677 106.179977
32 104.641464 17.579376 -3.913581 -6.012627 17.808174 74.893669 106.179977
[null_rope02_connect]
31 328.732849 0.000179 -0.000119 -91.263390 59.752483 19.619926 328.732849
32 328.732849 0.000179 -0.000119 -91.432060 60.149193 18.369822 328.732849
[Rope2_Seg01]
31 0.000095 0.000367 0.000000 80.160736 23.899977 11.643905 0.000379
32 0.000095 0.000375 0.000000 80.207214 24.588160 12.097886 0.000387
[Rope2_Seg02]
31 139.999741 -0.000060 -0.000119 -2.682945 -5.041500 -5.096282 139.999756
32 139.999741 -0.000060 -0.000119 -2.530658 -4.956875 -4.955863 139.999756
[Rope2_Seg03]
31 140.000107 0.000030 0.000000 -4.697921 -7.438874 -8.366645 140.000107
32 140.000107 0.000030 0.000000 -4.430117 -7.335362 -8.108337 140.000107
[Rope2_Seg04]
31 139.999802 0.000000 -0.000060 -8.989411 -10.806965 -16.533649 139.999802
32 139.999802 0.000000 -0.000060 -8.574440 -10.865758 -15.980330 139.999802
[Rope2_Seg05]
31 139.999985 -0.000060 0.000119 -10.423737 -9.188827 -21.159674 139.999985
32 139.999985 -0.000060 0.000119 -10.459126 -9.709786 -21.280226 139.999985
[Rope2_Seg06]
31 139.999893 -0.000030 -0.000119 -6.302657 -8.119675 -11.075249 139.999893
32 139.999893 -0.000030 -0.000119 -6.392902 -8.067844 -11.296475 139.999893
[Rope2_Seg07]
31 139.999893 0.000060 -0.000060 -6.852518 -8.366418 -10.576925 139.999893
32 139.999893 0.000060 -0.000060 -6.755532 -8.341788 -10.382691 139.999893
[Rope2_Seg09]
31 121.338966 0.000089 -0.000060 33.793236 -1.359788 -0.847141 121.338966
32 121.338966 0.000089 -0.000060 33.793236 -1.359788 -0.847141 121.338966
[R_mid_hand01]
31 104.680779 11.144459 -10.335981 -16.212063 45.237247 70.462852 105.778534
32 104.680779 11.144459 -10.335981 -16.212061 45.237240 70.462852 105.778534
[R_mid_hand02]
31 104.070427 2.443552 8.231699 49.067368 -67.749771 39.286453 104.424065
32 104.070427 2.443552 8.231699 49.067387 -67.749794 39.286457 104.424065
[R_mid_hand03]
31 106.028137 -11.221827 -5.996406 -177.101105 15.551026 -76.585571 106.788818
32 106.028137 -11.221827 -5.996406 -177.101105 15.551028 -76.585571 106.788818
[spine02]
31 129.756927 0.001550 0.000119 0.514303 -4.027001 -15.131762 129.756927
32 129.756927 0.001550 0.000119 0.507849 -4.027838 -15.052911 129.756927
[spine03]
31 78.613976 0.081712 -4.898996 1.988019 3.786067 17.850645 78.766510
32 78.613976 0.081715 -4.898995 1.984504 3.787188 17.803459 78.766510
[pelvis]
31 169.435242 0.051022 0.000000 -0.069758 -0.177962 16.898085 169.435257
32 169.435242 0.051022 0.000000 -0.069585 -0.178030 16.786873 169.435257
[null_rope03_connect]
31 -1.257226 -2.466202 137.391083 -178.995560 -86.135429 -95.523537 137.418976
32 -1.257226 -2.466202 137.391083 -178.931854 -86.130165 -95.522484 137.418976
[null_rope04_connect]
31 -1.259640 -2.480268 -137.844437 -178.995560 -86.135429 -95.523537 137.872513
32 -1.259640 -2.480268 -137.844437 -178.931854 -86.130165 -95.522484 137.872513
[Rope3_Seg01]
31 0.000000 0.000000 0.000000 -91.694839 -73.555138 48.783104 0.000000
32 0.000000 0.000000 0.000000 -91.744560 -73.550514 48.835922 0.000000
[Rope3_Seg02]
31 139.999924 -0.000119 0.000060 0.420847 18.863070 -1.167483 139.999924
32 139.999924 -0.000119 0.000060 0.417095 18.831511 -1.166019 139.999924
[Rope3_Seg03]
31 139.999924 -0.000119 0.000119 5.827048 25.626884 1.839733 139.999924
32 139.999924 -0.000119 0.000119 5.815749 25.628393 1.828985 139.999924
[Rope3_Seg04]
31 139.999924 0.000119 0.000000 8.931461 21.365131 -3.594208 139.999924
32 139.999924 0.000119 0.000000 8.928924 21.374887 -3.564780 139.999924
[Rope3_Seg05]
31 139.999924 -0.000238 0.000060 7.809891 30.063461 -33.493244 139.999924
32 139.999924 -0.000238 0.000060 7.827805 30.065220 -33.456459 139.999924
[Rope3_Seg06]
31 139.999893 -0.000119 -0.000060 0.879579 12.389475 -22.950647 139.999893
32 139.999893 -0.000119 -0.000060 0.884504 12.411117 -22.990215 139.999893
[Rope3_Seg07]
31 139.999771 0.000060 -0.000119 0.026282 4.428254 -8.250119 139.999771
32 139.999771 0.000060 -0.000119 0.026392 4.433547 -8.260056 139.999771
[Rope3_Seg08]
31 139.999985 -0.000060 0.000000 0.169176 2.064645 -3.886016 139.999985
32 139.999985 -0.000060 0.000000 0.169054 2.066395 -3.889511 139.999985
[Rope3_Seg09]
31 90.185997 -0.000179 -0.000060 89.793228 -1.359877 -0.847183 90.185997
32 90.185997 -0.000179 -0.000060 89.793228 -1.359877 -0.847183 90.185997
[R_rear_hand01]
31 103.366196 -6.073594 -10.757982 -177.714203 24.565960 -73.910950 104.101845
32 103.366196 -6.073594 -10.757982 -177.714203 24.565960 -73.910950 104.101845
[R_rear_hand02]
31 100.509819 12.039542 -7.992327 -12.874829 36.868488 72.167213 101.543350
32 100.509819 12.039542 -7.992327 -12.874829 36.868488 72.167213 101.543350
[R_rear_hand03]
31 101.539970 5.215704 5.435467 71.484581 -71.816628 21.513813 101.819031
32 101.539970 5.215704 5.435467 71.484581 -71.816597 21.513790 101.819031
[Rope4_Seg01]
31 0.000010 0.000038 -0.000114 -19.226185 -36.249027 163.081879 0.000121
32 0.000010 0.000038 -0.000114 -19.195339 -36.312473 163.053268 0.000121
[Rope4_Seg02]
31 139.999985 0.000060 0.000119 -14.180974 9.971525 19.592960 139.999985
32 139.999985 0.000060 0.000119 -14.146475 9.991958 19.603176 139.999985
[Rope4_Seg03]
31 139.999924 0.000000 -0.000238 -5.717824 9.658240 8.063631 139.999924
32 139.999924 0.000000 -0.000238 -5.771539 9.689917 8.112692 139.999924
[Rope4_Seg04]
31 139.999985 0.000000 0.000119 -42.675442 -8.350422 21.465227 139.999985
32 139.999985 0.000000 0.000119 -42.549351 -8.265952 21.353680 139.999985
[Rope4_Seg05]
31 139.999802 -0.000060 -0.000119 -22.437092 -37.020432 12.694786 139.999802
32 139.999802 -0.000060 -0.000119 -22.542942 -37.007454 12.745180 139.999802
[Rope4_Seg06]
31 139.999924 0.000000 0.000060 -1.662444 -13.580856 0.129904 139.999924
32 139.999924 0.000000 0.000060 -1.676721 -13.650702 0.122674 139.999924
[Rope4_Seg07]
31 139.999802 0.000000 0.000000 -0.243805 -6.545139 -0.038888 139.999802
32 139.999802 0.000000 0.000000 -0.248486 -6.574874 -0.043510 139.999802
[Rope4_Seg08]
31 139.999924 0.000000 0.000119 -1.536109 -3.461644 -0.036044 139.999924
32 139.999924 0.000000 0.000119 -1.538518 -3.476519 -0.038246 139.999924
[Rope4_Seg09]
31 90.185791 0.000060 0.000060 -135.617828 2.228885 0.850567 90.185791
32 90.185791 0.000060 0.000060 -135.617828 2.228885 0.850567 90.185791
[L_rear_hand01]
31 101.696655 -8.392275 -7.654577 -12.874829 -36.868488 107.832764 102.329041
32 101.696655 -8.392275 -7.654577 -12.874834 -36.868500 107.832779 102.329041
[L_rear_hand02]
31 102.726799 -1.568258 5.773216 71.484581 71.816628 158.486160 102.900848
32 102.726799 -1.568258 5.773216 71.484581 71.816628 158.486160 102.900848
[L_rear_hand03]
31 104.552910 9.721220 -10.420293 -177.714203 -24.565960 -106.089035 105.519653
32 104.552910 9.721220 -10.420293 -177.714203 -24.565966 -106.089035 105.519653
